<svg id="Layer_1" data-name="Layer 1" xmlns="http://www.w3.org/2000/svg" viewBox="0 0 100 175"><defs><style>.cls-1,.cls-2{fill:#008fd5;}.cls-2{fill-rule:evenodd;}.cls-3{fill:none;stroke:#008fd5;stroke-miterlimit:3.86;stroke-width:1.5px;}</style></defs><title>Artboard 1</title><rect class="cls-1" x="49.46" y="112.36" width="1.94" height="6.6"/><rect class="cls-1" x="68.66" y="112.36" width="1.94" height="6.6"/><path class="cls-2" d="M.2,101.36v36.5H99.75v-36.5Zm14.72,14H13v-3H11v15.19H13v-3h1.94v2.17a2.91,2.91,0,1,1-5.82,0V113.19a2.91,2.91,0,1,1,5.82,0Zm19.21-3H30.25V119h2.91v2H30.25v6.6h3.88v2H30.25a2,2,0,0,1-1.94-2V112.36a2,2,0,0,1,1.94-2h3.88Zm19.2,6.6a2,2,0,0,1-1.94,2H49.46v8.59H47.52V110.37h3.88a2,2,0,0,1,1.94,2Zm19.2,10.58H70.6v-8.59H68.66v8.59H66.72V113.19a2.91,2.91,0,1,1,5.82,0Zm19.68,0H86.4V110.37h1.94v17.18h1.94v-4h1.94Z"/><rect class="cls-3" x="1" y="138.03" width="98" height="35.93"/><path class="cls-2" d="M15.1,146.86H11.24a2,2,0,0,0-1.93,2V164a2,2,0,0,0,1.93,2H15.1v-2H11.24V157.4h2.9v-2h-2.9v-6.58H15.1Z"/><path class="cls-2" d="M28.45,163.15a2.9,2.9,0,1,0,5.8,0V161H32.31v3H30.38V148.84h1.93v3h1.93v-2.17a2.9,2.9,0,1,0-5.8,0Z"/><polygon class="cls-2" points="47.58 165.96 53.38 165.96 53.38 160.02 51.45 160.02 51.45 163.98 49.52 163.98 49.52 146.86 47.58 146.86 47.58 165.96"/><path class="cls-2" d="M66.72,166h1.93V157.4h1.93V166h1.93V149.67a2.9,2.9,0,1,0-5.8,0Zm1.93-17.12h1.93v6.58H68.65Z"/><path class="cls-2" d="M86.33,163.15a2.9,2.9,0,1,0,5.8,0V161H90.2v3H88.27V148.84H90.2v3h1.93v-2.17a2.9,2.9,0,1,0-5.8,0Z"/><path class="cls-2" d="M12.56,81.59c0,.73-.47,1-1.29,1s-1.29-.29-1.29-1V79.07c0-.08,0-.15.29-.17v-.11H8.17v.11c.25,0,.28.08.28.17v2.52c0,1.66,1.26,2.2,2.81,2.2s2.81-.55,2.81-2.2V79.07c0-.08,0-.15.29-.17v-.11h-2.1v.11c.26,0,.29.08.29.17Z"/><path class="cls-2" d="M21.39,79.88c0-.13.12-.16.29-.17V79.6h-1.8v.11c.16,0,.29,0,.29.17v1.86c-.86-.86-1.85-1.79-1.85-1.86s.12-.16.21-.17V79.6H16.11v.11c.15,0,.28,0,.28.17v3.58c0,.13-.12.16-.25.17v.11h1.74v-.11c-.14,0-.27,0-.27-.17V81l0,0a33.06,33.06,0,0,1,2.46,2.53c0,.11-.19.12-.3.12v.11h1.89v-.11c-.16,0-.29,0-.29-.17Z"/><path class="cls-2" d="M23.24,79.6v.11c.2,0,.33,0,.33.17v3.58c0,.13-.12.16-.33.17v.11h2v-.11c-.2,0-.33,0-.33-.17V79.88c0-.13.12-.16.33-.17V79.6Z"/><path class="cls-2" d="M26.88,79.6c-.08,0-.18,0-.18-.21h-.12v1.38h.12c0-.17.1-.21.18-.21h1.46v2.9c0,.13-.12.16-.23.17v.11h1.84v-.11c-.11,0-.24,0-.24-.17v-2.9h1.46c.08,0,.18,0,.18.21h.12V79.39h-.12c0,.17-.1.21-.18.21Z"/><path class="cls-2" d="M34.39,82.91V82H36.3c.08,0,.18,0,.18.22h.12V81h-.12c0,.18-.1.22-.18.22H34.39v-.76h3c.08,0,.18,0,.18.23h.12V79.39h-.12c0,.17-.1.21-.18.21H32.73v.11c.14,0,.28,0,.28.17v3.58c0,.13-.14.16-.28.17v.11h4.55c.16,0,.21,0,.29.2h.1V82.68h-.12a.26.26,0,0,1-.27.24Z"/><path class="cls-2" d="M39.48,83.46c0,.13-.12.16-.27.17v.11h3.06a2.07,2.07,0,1,0,0-4.14H39.22v.11c.14,0,.27,0,.27.17Zm1.37-3h.73c1,0,1.49.32,1.49,1.17s-.45,1.17-1.49,1.17h-.73Z"/><path class="cls-2" d="M49.55,83.46c0,.08,0,.15-.29.17v.11H51.2v-.11c-.26,0-.29-.09-.29-.17v-3c2.69,2.78,2.95,2.9,2.95,3s-.05.1-.23.1v.11h1.94v-.11c-.26,0-.29-.09-.29-.17V79.07c0-.08,0-.15.29-.17v-.11H53.7v.11c.13,0,.21.06.21.17v2.51c-.71-.72-2.48-2.46-2.48-2.56s.05-.11.29-.12v-.11H49.26v.11c.25,0,.29.08.29.17Z"/><path class="cls-2" d="M59,82.23l.84-1.65.86,1.65Zm3.89,1.52v-.11a.22.22,0,0,1-.2-.09c-.45-1-1.88-3.62-1.88-3.73s0-.09.13-.09V79.6H58.87v.11c.1,0,.13,0,.13.09s-.95,2-1.76,3.73a.22.22,0,0,1-.2.09v.11h1.53v-.11s-.13,0-.13-.09a6,6,0,0,1,.3-.64h2.36a4.36,4.36,0,0,1,.3.64c0,.09-.09.09-.13.09v.11Z"/><path class="cls-2" d="M64.37,79.6c-.08,0-.18,0-.18-.21h-.12v1.38h.12c0-.17.1-.21.18-.21h1.46v2.9c0,.13-.12.16-.23.17v.11h1.83v-.11c-.11,0-.23,0-.23-.17v-2.9h1.46c.08,0,.18,0,.18.21H69V79.39h-.12c0,.17-.1.21-.18.21Z"/><path class="cls-2" d="M70.29,79.6v.11c.2,0,.33,0,.33.17v3.58c0,.13-.12.16-.33.17v.11h2v-.11c-.2,0-.33,0-.33-.17V79.88c0-.13.12-.16.33-.17V79.6Z"/><path class="cls-2" d="M76.35,79.54c-1.28,0-2.72.64-2.72,2.13s1.45,2.13,2.72,2.13,2.72-.64,2.72-2.13S77.63,79.54,76.35,79.54Zm0,1c.77,0,1.4.43,1.4,1.13s-.62,1.13-1.4,1.13S75,82.37,75,81.67,75.58,80.54,76.35,80.54Z"/><path class="cls-2" d="M85.63,79.88c0-.13.12-.16.28-.17V79.6H84.12v.11c.16,0,.29,0,.29.17v1.86c-.86-.86-1.85-1.79-1.85-1.86s.12-.16.21-.17V79.6H80.35v.11c.15,0,.28,0,.28.17v3.58c0,.13-.12.16-.26.17v.11h1.74v-.11c-.14,0-.26,0-.26-.17V81l0,0a32.86,32.86,0,0,1,2.46,2.53c0,.11-.19.12-.3.12v.11h1.88v-.11c-.16,0-.28,0-.28-.17Z"/><path class="cls-2" d="M87.17,83.56l.11,0a.37.37,0,0,1,.23-.13,11.08,11.08,0,0,0,2.2.34c1.56,0,2.24-.64,2.24-1.37,0-1.64-3.33-1-3.33-1.62,0-.41.91-.41,1.16-.41a2.5,2.5,0,0,1,1.41.35s0,.08,0,.1l.13.06.61-1.19-.11,0a.35.35,0,0,1-.22.11,14.51,14.51,0,0,0-2-.24c-1.66,0-2.26.82-2.26,1.4,0,1.58,3.33.87,3.33,1.6,0,.37-.67.4-.93.4-.82,0-2-.24-2-.49,0,0,0-.08,0-.1l-.13-.06Z"/><path class="cls-1" d="M27,28A23,23,0,1,1,50,51,23,23,0,0,1,27,28Zm9.35-12.73-2.59-2.51a22.26,22.26,0,0,0-6,14.87h3.59A18.64,18.64,0,0,1,36.32,15.26Zm3.1,3-2.56-2.49A17.92,17.92,0,0,0,32.1,27.62h3.56A14.34,14.34,0,0,1,39.42,18.27Zm24.2,22.44,2.59,2.51a22.27,22.27,0,0,0,6-14.87H68.61A18.64,18.64,0,0,1,63.63,40.71ZM49.59,9.3V5.68a22.14,22.14,0,0,0-15.34,6.53l2.59,2.51A18.56,18.56,0,0,1,49.59,9.3Zm0,4.32V10a17.8,17.8,0,0,0-12.21,5.2l2.56,2.49A14.25,14.25,0,0,1,49.59,13.62Zm0,5.08V14.36a13.49,13.49,0,0,0-9.11,3.89l3.11,3A9.2,9.2,0,0,1,49.59,18.7Zm0,31.59V46.67a18.56,18.56,0,0,1-12.75-5.42l-2.59,2.51A22.14,22.14,0,0,0,49.59,50.3Zm.76-35.94V18.7a9.2,9.2,0,0,1,6,2.57l3.11-3A13.5,13.5,0,0,0,50.35,14.36ZM34.68,38.68c-.35-.16-.75-.35-1-.49s-.12-.47-.42-.69-.41-.19-.72-.42.24-.19-.36-.43c-.2-.08-.24.23-.62.16S31.2,36,31,36c-.69,0-.79-.9-.83-1.49-.07-1,.75-.88.75-.88l.56.23.29-.47a3.44,3.44,0,0,1,.41,0,18.66,18.66,0,0,1-.81-5.11H27.74a22.26,22.26,0,0,0,6,14.87l2.59-2.51A18.47,18.47,0,0,1,34.68,38.68Zm2.7,1-.15,0c-.21,0-.38.14-.65.24l.28.31Zm4.94.45,0,0c-.23.37-.34.28-1.1.35s-.93.46-1.46.53-.46,0-.92-.44a4.5,4.5,0,0,0-.74-.56l-.71.69a17.8,17.8,0,0,0,12.21,5.2V42.35A14.21,14.21,0,0,1,42.32,40.14Zm-8.92-6.52c.53-.07.72,0,1.22-.05s.2-1.26.2-1.73.48-.91.82-1.38a1.59,1.59,0,0,1,.18-.22,14.24,14.24,0,0,1-.17-1.88H32.1a18,18,0,0,0,.9,5.28A1.77,1.77,0,0,0,33.41,33.62ZM57.33,21.37A7.75,7.75,0,0,0,58.59,23a16.24,16.24,0,0,0,1.65,1c.39.24-.5.3-.17.58s1-.5,1.22-.5a.57.57,0,0,1,.58.62c0,.53-.29.94,0,1s1-1,1.06-1.81q-.21-.65-.47-1.27c-.51-.55-1.23-.66-1.25-1,0-.53.27-.52.46-.57A13.69,13.69,0,0,0,60,18.79ZM46.62,24.21a5.15,5.15,0,0,0,.78,0c.8-.09.67-1.42,1.23-1.25a1.81,1.81,0,0,0,1,0V19.44a8.44,8.44,0,0,0-5.46,2.35Zm-3.89-.67a5.22,5.22,0,0,1,.93-.19c1.26-.12,1.26.94,1.26.94a3.12,3.12,0,0,1,.6-.11l-1.9-1.85A8.54,8.54,0,0,0,42.73,23.54Zm-3.78,4.08a2.47,2.47,0,0,0,.26-1c0-.74.21-1.8,1.39-1.88s-.1-.47.46-.65l.62-.23a9.28,9.28,0,0,1,1.4-2.09l-3.11-3a13.59,13.59,0,0,0-3.54,8.82Zm-.63,2.06c0,.24.49.32.26,1v0s-.46.24-.46,0V30.6A5.29,5.29,0,0,1,38,29.47a2.28,2.28,0,0,1,.51-1.11H36.42A13.43,13.43,0,0,0,36.56,30l.08,0c.36.08.82.68,1.14.68a.53.53,0,0,0,.32-.09v.06c0,.28.46,0,.46,0v0a1.21,1.21,0,0,1,.55.7,17.93,17.93,0,0,0,.66,2,3.12,3.12,0,0,1,.28,1.26c0,.47.38.52.42.87s.16,1,.16,1l-.34.39,2.77-2.69a9.25,9.25,0,0,1-2.19-4.51.63.63,0,0,0-.35,0c-.47.16.14,1.08-.33,1s-.58-.23-.5-.48.37,0,.37-.62c0-.33-.55-.61,0-.61.12,0,.39.28.59.28a.47.47,0,0,0,.17,0c0-.25-.05-.5-.06-.75l-.07-.05H40c0,.12-.13.2-.37.21-.83,0-.57.49-.61.73S38.28,29.43,38.32,29.67ZM40.79,27c-.37-.16-1.08-.14-1.08.23a1.1,1.1,0,0,0,.1.39h.93C40.75,27.41,40.76,27.2,40.79,27Zm4.43,5.09c-.94,0,0-1.32-.26-1.39-.62-.16-.29.7-.54.7a.66.66,0,0,1-.55-.46c0-.16.13-.57-.21-.57a3.66,3.66,0,0,1-1-.28,9,9,0,0,0-.94-.19,8.53,8.53,0,0,0,1.9,3.74Zm1.31-1.57a.41.41,0,0,0-.26-.1c-.33,0-.61,1.06-.86,1.49l1.26-1.22Zm-1.35-2.16a.93.93,0,0,1-.22.42c-.19.19.39.26.8.17h.05a4,4,0,0,1-.09-.58Zm4.41-4.76c-.21-.08-.41-.08-.35.15l.35,0Zm1.18,7.92a1.15,1.15,0,0,0,.33-.58c.08-.89,1-.24,1.34-.57s.61-1.21.31-1.43.79-.05.71-.42-.93.08-1-.24-.67-.36-.29-2.08c.09-.4-.75-.08-.89-1.14,0-.22-.85-.09-1.08-.28a1,1,0,0,1-.34-.4l-.41,0c.07.34.07.68-.14.81s-.64.17-.89.34.08.36-.21.57-.85.34-.8.62.48.4.35.57-.47-.24-.6,0,0,1.06-.33,1.06,0-.53-.43-.69c0,.09,0,.18,0,.27a3.75,3.75,0,0,0,.07.7h.16c.37,0-.08.21.37.21s.32-.82.62-.78.17,1.27-.21,1.55-.33-.24-.46,0a.61.61,0,0,0,0,.14,3.52,3.52,0,0,0,.41.56c.44,0,.35-.66.64-.74s-.05-.9.67-1,1.08-.27,1.3.21a2.23,2.23,0,0,1-.83,1.91c-.76.09-1.18-.08-1.18.08a.11.11,0,0,1,0,0,3.6,3.6,0,0,0,2.87.58Zm-.41,2.15a1.5,1.5,0,0,0,.54-.61c.42-.9-.58,0-.5-.74v-.06h0Zm-.76,2.55a.51.51,0,0,1-.38-.05c-.28-.21-.33-1.19.38-1.3V32.27a4.23,4.23,0,0,1-2.42-1l-3,3a8.44,8.44,0,0,0,5.46,2.35Zm.76-.08a1.53,1.53,0,0,1,.7-.19c.91-.06.8.18,1.07.3a8.44,8.44,0,0,0,2.81-1.34c-.18-.27-.45.31-.84.23s-.46-.54,0-.9.83-.54.62-.78-.85.05-1.05.42-.12,1.55-.46,1.59A2.85,2.85,0,0,1,52,35.31c-1.34-.4-1.26.43-1.51.57l-.12.06ZM49.59,41a2.79,2.79,0,0,1-1.1-.15A3.21,3.21,0,0,1,46.82,39c0-.28.33-.4.42-.61s.13-.5.21-.74a1.86,1.86,0,0,1,.51-.58,9.21,9.21,0,0,1-4.36-2.35l-2.76,2.68c.48.21.14.42.5.84s.8.42,1.1.72a.57.57,0,0,1,.15.47,13.45,13.45,0,0,0,7,2.2Zm2.72.44a2.32,2.32,0,0,0-.28-.59c-.24-.27-.92,0-1.67.07v.72A13.44,13.44,0,0,0,52.31,41.42ZM56.58,46a1.67,1.67,0,0,1-.75-.23c-.28-.15-.57-.35-.81-.51a6.75,6.75,0,0,1-1.53-1.47c-.38-.52.39-1.11-.62-1.7a14.29,14.29,0,0,1-2.53.29v3.58A17.79,17.79,0,0,0,55,45.21c.26.17.54.37.83.52a18.56,18.56,0,0,1-5.48.94V50.3a22.14,22.14,0,0,0,15.34-6.53L63.1,41.25a18.71,18.71,0,0,1-4,3A8.9,8.9,0,0,1,56.58,46ZM58,36.26c-1.37.16-2.16-.86-2.4-.71s-.25.28-.25.42a11.1,11.1,0,0,0,2.69.69.47.47,0,0,0,.28-.08Zm2.78-7.91a1.17,1.17,0,0,1,.08.29c0,.36,1.35,1.56,1.35,2s-.73.38-1.22.44c-1,.13-1,.44-1.3.42s-.13-.41-.21-.34a16,16,0,0,0-.85,1.4,3.94,3.94,0,0,1-1.16.91c-.13.18-.27.36-.41.53.14.27.84-.21,1.12-.29s.29-.66.64-.7.37.16.58.66-.21.2-.33,1.51a1.09,1.09,0,0,1-.27.79l.06.06a1,1,0,0,1,.63-.4c.67-.08.37.32.47.82a.82.82,0,0,0,.3.48,13.6,13.6,0,0,0,3.32-8.58Zm2.69-2a.36.36,0,0,1-.38.05c-.32-.15.08-.68.21-1.12,0-.21-.09-.42-.14-.63-.11.3-.54,1.35-.92,1.43s-.42,0-.79.36-.31.74-.56,1.17h2.67Q63.51,27,63.43,26.35ZM55.72,21.7h-.08c-.33,0-.5.34-.72,0-.1-.15.1-.29.36-.38a8.42,8.42,0,0,0-4.93-1.88v3.29a.74.74,0,0,1,.54.12c1.1.78,1-.94,1.53-.57.7.51-1.1,1.06-.73,1.43s.4-.32.79-.24.25.48.85.48.33-1.18,1.47-1.35l.22,0,.33-.32c0-.16-.09-.33.41-.4l.06-.06Zm10.65-.88a1,1,0,0,1-.63.12c-.6-.08-.68-1.3-1.35-1.55-2.4-.9-1.76-1.28-2-1.56s-.74-.15-1-.4l-.51.49a1.42,1.42,0,0,0,.28.23c.83.5.33,1,.67,1.28s.22-.16.51.12-.08.58.25,1a2.52,2.52,0,0,1,.67,1,11.82,11.82,0,0,1,.07,1.23c.13.34.25.69.36,1,.13-.21.28-.52.51-.52s0,.94-.2,1.71a14.51,14.51,0,0,1,.3,2.6h3.56A17.92,17.92,0,0,0,66.37,20.82ZM64,14.92c.28.29.72.61.85.78a10.87,10.87,0,0,1,1,1.52c.29.57,1.77,2.55,1.21,3.11a18.66,18.66,0,0,1,1.62,7.28h3.59a22.27,22.27,0,0,0-6-14.87Zm-5.83-3.73c.27-.11.79.12,1.08-.38s1.18.3,1.35.08-.7-1.12.64-.53c.91.4,0,.65,0,1s.29-.16,1.26,1c.48.59-.22.36.29.93s.62.3,1,.42c.13,0,.17.11.17.19l1.75-1.7A22.14,22.14,0,0,0,50.35,5.68V9.3A18.51,18.51,0,0,1,58.15,11.19Zm-7.71-.24c.14-.07.58.13.58.34s-.36.32-.58.25a.17.17,0,0,1-.08-.06v2.15a14.23,14.23,0,0,1,8.59,3.17,4.43,4.43,0,0,0-.74-.75c-.29-.12-.5-.46-.21-.66s-.13-.65,0-.94c.5,0,.35.73.68,1.1s.46-.09.75.24.05,1.2.6,1.44a1.5,1.5,0,0,1,.28.16l.77-.75c-.13-.52-.31-1.15-.68-1.34-.54-.28-.46.54-.8.32-.62-.4-.5-1.71-.5-1.71s-.92-.15-.55-1.43c.07-.24-.57-.24-.7-.6A17.73,17.73,0,0,0,50.35,10v1A.2.2,0,0,1,50.44,10.94Zm11.9,29.57c-.28.1-.58.08-.63-.2,0-.11-.05-.29-.08-.49L60,38.24l-.35.33a.45.45,0,0,0,0,.21c.08.5,1.1,1,1.14,1.35s-.54,1.1-.54,1.43a6.53,6.53,0,0,1,0,1.14,17.94,17.94,0,0,0,2.34-2Zm-.21-2.76c.8-.07.88,1.78.8,2.22v0l.17.17a17.9,17.9,0,0,0,4.76-11.83H64.29a14.35,14.35,0,0,1-3.76,9.35l1.05,1C61.61,38.22,61.76,37.79,62.13,37.76Zm-32.2-2.46c.29-.08.22.57.52.93a1.27,1.27,0,0,1,.28,1.06c-.18.2-.25-.39-.5-1A2.72,2.72,0,0,1,29.92,35.29Zm32.46-5.62c.71-.08.59.42.13.42S61.68,29.75,62.39,29.67Zm-2.48,4.94c.29-.2.55.05.25.21S59.61,34.81,59.91,34.61ZM40,31c.29-.2.83.5.4.71S39.66,31.22,40,31Zm9,.24c0-.1.12-.19.27-.19s.23,0,.23.13a.24.24,0,0,1-.23.24C49.08,31.44,49,31.36,49,31.25Zm1.56-1.74c0-.09.16-.12.25-.12a.16.16,0,1,1,0,.32C50.68,29.71,50.52,29.6,50.52,29.51Zm-1.59-1.59c.42.36.29.61-.22.53S48.72,27.74,48.92,27.92Zm3.33,1.25c.09,0,.07.35,0,.35S52.16,29.17,52.25,29.17Zm2.43-7.46a.36.36,0,0,1-.25.66C54,22.29,54.39,21.59,54.68,21.71Zm-.67.78c.21.16-.18.86-.43.74S53.8,22.33,54,22.49Zm9.64-1c.29-.08.67,1.4.37,1.52S63.36,21.55,63.65,21.47Zm-1.2-2.73c.09,0,.35.42.26.42C62.31,19.16,62.19,18.73,62.45,18.73Zm-6.54-4.14a2.48,2.48,0,0,0,1.18.17,1.05,1.05,0,0,0,.54-.27s.12.58-.31.66S55.91,14.59,55.91,14.59ZM54.43,11c.26,0,.44.46,0,.46A.23.23,0,1,1,54.43,11ZM56.26,14c.09,0,.35.42.26.42C56.12,14.46,56,14,56.26,14Zm-2-6.86c.11.14-.07.35-.6.41s-.87.39-1.15.11.64-.27.89-.51S53.88,6.83,54.28,7.18Zm-2.33.22c.22,0,.47,1.08.36,1.24s-.36,0-.8,0-.24-.41-.6-.41-.58.25-.54,0S51.73,7.4,51.95,7.4Z"/><path class="cls-2" d="M32.49,7c-.22,0-5.69,1.06-6.67,7.61A19.54,19.54,0,0,0,32.49,7Z"/><path class="cls-2" d="M26.63,9c-1.32,3.22-1.43,6.33-2.07,9,.86-1.32,1.53-2.74,2.65-3.45a14.85,14.85,0,0,0,3.57-3.22c.17.29.06,3.45-3.39,5.81a16.28,16.28,0,0,0-4.09,4.26c0-4.43-.69-3.51-.46-6C23.29,10.44,26.63,9,26.63,9Z"/><path class="cls-2" d="M22.32,13.49a44.35,44.35,0,0,0-.23,5.29,45.77,45.77,0,0,1,.17,6.44,23.2,23.2,0,0,1,2.07-4.31,28.65,28.65,0,0,1,3.4-3.22,14,14,0,0,1-2.65,5.81A13.61,13.61,0,0,0,22,30a26.83,26.83,0,0,1-2.07-8.91C19.71,16,22.32,13.49,22.32,13.49Z"/><path class="cls-2" d="M18.29,21.66A15,15,0,0,0,18.4,29c1,3.16,2.47,3.68,4.77,8a6.39,6.39,0,0,1,.58-3.91,18.64,18.64,0,0,0,1.72-8.92A32.7,32.7,0,0,0,23,28.67a14.26,14.26,0,0,0-.63,5.06s-1.26-4.43-1.73-6S19,24.53,18.29,21.66Z"/><path class="cls-2" d="M18.4,31.66s.56,5.26,2.76,8c2,2.47,3.62,2.94,5.52,5.12a33.28,33.28,0,0,1-.28-3.45,40.55,40.55,0,0,0,.22-5.58,20.32,20.32,0,0,0-1.26-5.64,52.77,52.77,0,0,0-.8,6.21,36.34,36.34,0,0,0,.64,5.12,36.19,36.19,0,0,0-3.11-4.77A61,61,0,0,1,18.4,31.66Z"/><path class="cls-2" d="M20.48,40.29s1.34,6.06,4.14,8a23.55,23.55,0,0,0,7.59,3.33c-.86-2.81-1-5.86-1.55-7.07-1-2.32-3.16-6.15-3.16-6.15s-.58,4.09.51,6.85c.75,1.9,1.73,3.74,1.73,3.74S26.06,46,25,45.12A23.12,23.12,0,0,1,20.48,40.29Z"/><path class="cls-2" d="M31.46,44.77A27.3,27.3,0,0,0,32.78,50a9.7,9.7,0,0,0,3.62,4.14,52.52,52.52,0,0,0-5.11-1.89,24.31,24.31,0,0,1-7-2.7,16.39,16.39,0,0,0,6.67,6c2.76,1.32,6.33-.63,8.57-.63-.69-.64-1.21-.58-3.34-4.37A18.64,18.64,0,0,0,31.46,44.77Z"/><path class="cls-2" d="M67.46,7c.22,0,5.69,1.06,6.67,7.61A19.54,19.54,0,0,1,67.46,7Z"/><path class="cls-2" d="M73.32,9c1.32,3.22,1.43,6.33,2.07,9-.86-1.32-1.53-2.74-2.65-3.45a14.85,14.85,0,0,1-3.57-3.22c-.17.29-.06,3.45,3.39,5.81a16.28,16.28,0,0,1,4.09,4.26c0-4.43.69-3.51.46-6C76.65,10.44,73.32,9,73.32,9Z"/><path class="cls-2" d="M77.63,13.49a44.34,44.34,0,0,1,.23,5.29,45.57,45.57,0,0,0-.18,6.44,23.14,23.14,0,0,0-2.07-4.31,28.61,28.61,0,0,0-3.4-3.22,14,14,0,0,0,2.65,5.81A13.59,13.59,0,0,1,78,30,26.8,26.8,0,0,0,80,21.09C80.24,16,77.63,13.49,77.63,13.49Z"/><path class="cls-2" d="M81.66,21.66A15.06,15.06,0,0,1,81.54,29c-1,3.16-2.47,3.68-4.77,8a6.37,6.37,0,0,0-.58-3.91,18.64,18.64,0,0,1-1.72-8.92,32.5,32.5,0,0,1,2.47,4.48,14.23,14.23,0,0,1,.63,5.06s1.26-4.43,1.73-6S81,24.53,81.66,21.66Z"/><path class="cls-2" d="M81.54,31.66s-.56,5.26-2.76,8c-2,2.47-3.62,2.94-5.52,5.12a34,34,0,0,0,.28-3.45,40.52,40.52,0,0,1-.23-5.58,20.37,20.37,0,0,1,1.27-5.64,52.77,52.77,0,0,1,.8,6.21,36.34,36.34,0,0,1-.64,5.12,36,36,0,0,1,3.11-4.77A61,61,0,0,0,81.54,31.66Z"/><path class="cls-2" d="M79.47,40.29s-1.34,6.06-4.14,8a23.57,23.57,0,0,1-7.59,3.33c.86-2.81,1-5.86,1.55-7.07,1-2.32,3.16-6.15,3.16-6.15s.58,4.09-.51,6.85c-.75,1.9-1.73,3.74-1.73,3.74S73.89,46,75,45.12A23.14,23.14,0,0,0,79.47,40.29Z"/><path class="cls-2" d="M68.49,44.77A27.24,27.24,0,0,1,67.17,50a9.7,9.7,0,0,1-3.62,4.14,52.28,52.28,0,0,1,5.11-1.89,24.35,24.35,0,0,0,7-2.7,16.4,16.4,0,0,1-6.67,6c-2.76,1.32-6.33-.63-8.57-.63.69-.64,1.21-.58,3.34-4.37A18.66,18.66,0,0,1,68.49,44.77Z"/><path class="cls-2" d="M49.92,56.44A21.15,21.15,0,0,0,44,55.29c-2.93-.06-7.82,1.49-9.49,1.73a18.64,18.64,0,0,1-5.18-.4s1.73,2.65,7.82,2.7c4.83,0,8.4-2.65,11.5-2.59-5.11,2-6.9,5.06-6.9,5.06l1.44.35s4-4.72,6.78-4.95c2.76.23,6.78,4.95,6.78,4.95l1.44-.35s-1.78-3.05-6.9-5.06c3.1-.06,6.67,2.63,11.5,2.59,6.09-.06,7.82-2.7,7.82-2.7a18.65,18.65,0,0,1-5.18.4c-1.67-.24-6.55-1.79-9.49-1.73A22.49,22.49,0,0,0,49.92,56.44Z"/><path class="cls-2" d="M8.56,72.45c0,.08,0,.15-.26.17v.11h1.77v-.11c-.23,0-.26-.08-.26-.17V69.52c2.46,2.75,2.7,2.87,2.7,3s0,.1-.22.1v.11h1.77v-.11c-.23,0-.26-.08-.26-.17V68.11c0-.08,0-.15.26-.17v-.11H12.35v.11c.12,0,.2.06.2.17V70.6c-.65-.72-2.27-2.43-2.27-2.54s0-.11.26-.12v-.11H8.3v.11c.23,0,.26.08.26.17Z"/><path class="cls-2" d="M17.25,71.23,18,69.6l.78,1.63Zm3.56,1.5v-.11a.2.2,0,0,1-.19-.09c-.41-1-1.72-3.58-1.72-3.69s0-.08.12-.09v-.11h-2v.11c.09,0,.12,0,.12.09s-.87,1.95-1.61,3.69a.2.2,0,0,1-.19.09v.11h1.4v-.11s-.12,0-.12-.08A5.91,5.91,0,0,1,17,71.9h2.16a4.73,4.73,0,0,1,.27.63c0,.08-.08.08-.12.08v.11Z"/><path class="cls-2" d="M26.5,68.81a.18.18,0,0,1-.14.08,6.51,6.51,0,0,1-.67-.16,5,5,0,0,0-1.13-.16c-1.36,0-2.72.58-2.72,2.11s1.36,2.11,2.72,2.11a4.85,4.85,0,0,0,2.09-.56c.06,0,.1,0,.15.1l.11-.06L26,71l-.1.07a1,1,0,0,1,0,.17,1.71,1.71,0,0,1-1.37.58c-.7,0-1.51-.33-1.51-1.12s.81-1.12,1.51-1.12,1.29.27,1.29.42a.67.67,0,0,1,0,.16l.13.07.67-1.36Z"/><path class="cls-2" d="M28,68.63v.11c.19,0,.3,0,.3.17v3.54c0,.13-.11.16-.3.17v.11H29.9v-.11c-.19,0-.3,0-.3-.17V68.91c0-.13.11-.16.3-.17v-.11Z"/><path class="cls-2" d="M33.59,68.57a2.14,2.14,0,1,0,0,4.22,2.14,2.14,0,1,0,0-4.22Zm0,1a1.13,1.13,0,1,1-1.28,1.12A1.16,1.16,0,0,1,33.59,69.56Z"/><path class="cls-2" d="M42.08,68.91c0-.13.11-.16.26-.17v-.11H40.7v.11c.15,0,.26,0,.26.17v1.84c-.78-.85-1.69-1.77-1.69-1.84s.11-.16.2-.17v-.11H37.25v.11c.14,0,.25,0,.25.17v3.54c0,.13-.11.16-.23.17v.11h1.59v-.11c-.13,0-.24,0-.24-.17V70l0,0a31.92,31.92,0,0,1,2.25,2.51c0,.11-.18.12-.27.12v.11h1.73v-.11c-.15,0-.26,0-.26-.17Z"/><path class="cls-2" d="M45.21,71.91V71H47c.07,0,.17,0,.17.21h.11V70h-.11c0,.18-.09.21-.17.21H45.21v-.76h2.72c.08,0,.17,0,.17.22h.11V68.42h-.11c0,.17-.09.21-.17.21H43.7v.11c.13,0,.26,0,.26.17v3.54c0,.13-.13.16-.26.17v.11h4.16c.15,0,.2,0,.26.2h.09V71.68h-.11c0,.17-.13.23-.24.23Z"/><path class="cls-2" d="M49.42,72.56l.1,0a.33.33,0,0,1,.22-.13,9.42,9.42,0,0,0,2,.34c1.43,0,2.05-.63,2.05-1.36,0-1.62-3-.94-3-1.6,0-.41.83-.41,1.06-.41a2.16,2.16,0,0,1,1.29.35s0,.07,0,.1l.12.06.56-1.18-.1,0a.31.31,0,0,1-.21.11,12.29,12.29,0,0,0-1.86-.24c-1.52,0-2.07.81-2.07,1.39,0,1.57,3,.86,3,1.59,0,.36-.62.4-.85.4-.76,0-1.83-.24-1.83-.48,0,0,0-.08,0-.1l-.12-.06Z"/><path class="cls-2" d="M62.36,70.61c0,.72-.43,1-1.17,1s-1.17-.29-1.17-1v-2.5c0-.08,0-.15.26-.17v-.11H58.35v.11c.23,0,.26.08.26.17v2.5c0,1.64,1.15,2.18,2.57,2.18s2.57-.54,2.57-2.18v-2.5c0-.08,0-.15.26-.17v-.11H62.1v.11c.23,0,.26.08.26.17Z"/><path class="cls-2" d="M70.45,68.91c0-.13.11-.16.26-.17v-.11H69.07v.11c.15,0,.26,0,.26.17v1.84c-.78-.85-1.69-1.77-1.69-1.84s.11-.16.2-.17v-.11H65.62v.11c.14,0,.25,0,.25.17v3.54c0,.13-.11.16-.23.17v.11h1.59v-.11c-.13,0-.24,0-.24-.17V70l0,0a31.91,31.91,0,0,1,2.25,2.51c0,.11-.18.12-.27.12v.11h1.72v-.11c-.15,0-.26,0-.26-.17Z"/><path class="cls-2" d="M72.13,68.63v.11c.19,0,.3,0,.3.17v3.54c0,.13-.11.16-.3.17v.11H74v-.11c-.19,0-.3,0-.3-.17V68.91c0-.13.11-.16.3-.17v-.11Z"/><path class="cls-2" d="M75.65,72.45c0,.13-.11.16-.24.17v.11h2.8a2.05,2.05,0,0,0,0-4.1H75.4v.11c.13,0,.24,0,.24.17Zm1.25-2.93h.67c1,0,1.36.32,1.36,1.16s-.41,1.16-1.36,1.16H76.9Z"/><path class="cls-2" d="M83,71.23l.76-1.63.78,1.63Zm3.56,1.5v-.11a.2.2,0,0,1-.19-.09c-.41-1-1.72-3.58-1.72-3.69s0-.08.12-.09v-.11h-2v.11c.09,0,.12,0,.12.09s-.87,1.95-1.61,3.69a.2.2,0,0,1-.19.09v.11h1.4v-.11s-.12,0-.12-.08a5.91,5.91,0,0,1,.27-.63h2.16a4.61,4.61,0,0,1,.27.63c0,.08-.08.08-.12.08v.11Z"/><path class="cls-2" d="M87.57,72.56l.1,0a.34.34,0,0,1,.21-.13,9.45,9.45,0,0,0,2,.34c1.43,0,2.05-.63,2.05-1.36,0-1.62-3-.94-3-1.6,0-.41.83-.41,1.06-.41a2.16,2.16,0,0,1,1.29.35s0,.07,0,.1l.12.06.56-1.18-.1,0a.32.32,0,0,1-.21.11,12.32,12.32,0,0,0-1.86-.24c-1.52,0-2.07.81-2.07,1.39,0,1.57,3.05.86,3.05,1.59,0,.36-.62.4-.85.4-.76,0-1.83-.24-1.83-.48,0,0,0-.08,0-.1L88,71.31Z"/></svg>